<svg xmlns="http://www.w3.org/2000/svg" viewBox="0 0 279.16 50.56"><defs><style>.cls-1{fill:#fff;}</style></defs><g id="Layer_2" data-name="Layer 2"><g id="Layer_1-2" data-name="Layer 1"><path class="cls-1" d="M77.72,31.69c0,6.5-4.71,8.65-8.5,8.65s-6.93-2.79-6.93-8.15V13.83H54V32.55c0,9.71,4.78,15.5,13.35,15.5,3.36,0,8.65-1.86,10.36-6.07v5.21H86V13.83H77.72Z"/><path class="cls-1" d="M109.05,40.34a9.62,9.62,0,0,1-9.5-9.86A9.55,9.55,0,0,1,109,20.69a9.83,9.83,0,0,1,.07,19.65m9.72-21.86c-2.22-3.5-6.65-5.5-11.22-5.5-9.43,0-16.29,7.43-16.29,17.5,0,10.36,7.15,17.57,16.08,17.57A13.46,13.46,0,0,0,118.77,42v5.21h8.28V13.84h-8.28Z"/><path class="cls-1" d="M152.7,13c-3.43,0-8.65,1.93-10.36,6.14V13.84h-8.29V47.19h8.29V29.48c0-6.43,4.71-8.64,8.5-8.64s6.93,2.85,6.93,8.21V47.19h8.28V28.48c0-9.72-4.78-15.5-13.35-15.5"/><path class="cls-1" d="M199,27.62c1-5.07,4.64-7.29,9.07-7.29,4.64,0,8.22,2.72,8.71,7.29ZM208,13c-9.57,0-17.5,6.85-17.5,17.5,0,10.43,7.57,17.57,17.5,17.57,6.07,0,12-2.71,15.07-7.57l-5.57-4.22a11.07,11.07,0,0,1-9,4.29c-5,0-8.57-2.5-9.5-7.14h25.85c.08-1.22.15-2.29.15-3.22C225,19.76,217.48,13,208,13"/><path class="cls-1" d="M261.16,40.33a9.61,9.61,0,0,1-9.5-9.85,9.55,9.55,0,0,1,9.43-9.79,9.82,9.82,0,0,1,.07,19.64m9.71-26.49v4.64c-2.21-3.5-6.64-5.5-11.21-5.5-9.43,0-16.29,7.43-16.29,17.5,0,10.36,7.14,17.57,16.07,17.57A13.43,13.43,0,0,0,270.87,42v5.21h8.29V13.84Z"/><rect class="cls-1" x="229.84" y="2.16" width="8.29" height="45.03"/><polygon class="cls-1" points="182.72 2.16 174.43 2.16 174.43 13.84 168.44 13.84 168.44 20.41 174.43 20.41 174.43 47.19 182.72 47.19 182.72 20.41 189.79 20.41 189.79 13.84 182.72 13.84 182.72 2.16"/><path class="cls-1" d="M24,39.2a15.19,15.19,0,1,1,13.31-7.89l-3.7-3.7H21.58l9.72,9.72A15,15,0,0,1,24,39.2M56.58,50.56,37.33,31.31h9.59a24,24,0,1,0-9.19,12.45l6.8,6.8Z"/></g></g></svg>